<?xml version="1.0" encoding="utf-8"?>
<!-- Uploaded to: SVG Repo, www.svgrepo.com, Generator: SVG Repo Mixer Tools -->
<svg xmlns="http://www.w3.org/2000/svg" xmlns:xlink="http://www.w3.org/1999/xlink" version="1.1" id="Capa_1"  viewBox="-275 367 60 60" xml:space="preserve" width="512" height="512">
<style type="text/css">
	.st0{fill:#FFFFFF;fill-opacity:0;}
	.st1{fill:#ECF4F7;}
	.st2{fill:#D4E3D6;}
	.st3{fill:#AAB1BA;}
	.st4{fill:#80D6FA;}
	.st5{fill:#50DD8E;}
	.st6{fill:#FF7474;}
	.st7{fill:#51565F;}
</style>
<title>hotel</title>
<desc>Created with Sketch.</desc>
<g id="Travel">
	
	<g id="hotel">
		<g id="fill" transform="translate(1.000000, 1.000000)">
			<path id="Fill-18" class="st1" d="M-217,377v46c0-1.1-0.9-2-2-2c-0.4,0-0.8,0.1-1.1,0.3c-0.3-1.3-1.5-2.3-2.9-2.3s-2.6,1-2.9,2.3     c-0.3-0.2-0.7-0.3-1.1-0.3c-1.1,0-2,0.9-2,2s0.9,2,2,2h-4v-2h-2v-46H-217z"/>
			<path id="Combined-Shape" class="st1" d="M-259,423h26v-46h-26V423z M-231,423v2h-30v-2h2h26H-231z"/>
			<path id="Fill-19" class="st1" d="M-259,377v46h-2v2h-10v-6c2.2,0,4-1.8,4-4c0-4-1-12-4-12s-4,8-4,12v-38H-259z"/>
			<polygon id="Fill-1" class="st2" points="-243,391 -239,391 -239,385 -243,385    "/>
			<path id="Combined-Shape_1_" class="st3" d="M-227,391h4v-6h-4V391z M-269,403h4v-6h-4V403z M-253,391h4v-6h-4V391z M-253,403h4     v-6h-4V403z M-243,391h4v-6h-4V391z M-243,403h4v-6h-4V403z M-227,415h4v-6h-4V415z M-227,403h4v-6h-4V403z M-269,391h4v-6h-4     V391z"/>
			<rect id="Rectangle" x="-253" y="409" class="st4" width="14" height="14"/>
			<path id="Combined-Shape_2_" class="st5" d="M-271,403c3,0,4,8,4,12c0,2.2-1.8,4-4,4s-4-1.8-4-4C-275,411-274,403-271,403z      M-219,421c1.1,0,2,0.9,2,2s-0.9,2-2,2h-8c-1.1,0-2-0.9-2-2s0.9-2,2-2c0.4,0,0.8,0.1,1.1,0.3c0.3-1.3,1.5-2.3,2.9-2.3     s2.6,1,2.9,2.3C-219.8,421.1-219.4,421-219,421z"/>
			<path id="Fill-14" class="st1" d="M-271,419v6h-4v-10C-275,417.2-273.2,419-271,419"/>
			<path id="Combined-Shape_3_" class="st6" d="M-265,367l-1,2h-2l1.8,1.3l-0.7,2l2-0.9l2,0.9l-0.7-2l1.6-1.3h-2L-265,367z      M-233,369l-1.6,1.3l0.7,2l-2-0.9l-2,0.9l0.7-2l-1.8-1.3h2l1-2l1,2H-233z M-252,369l-1.6,1.3l0.7,2l-2-0.9l-2,0.9l0.7-2l-1.8-1.3     h2l1-2l1,2H-252z M-243,369l-1.6,1.3l0.7,2l-2-0.9l-2,0.9l0.7-2l-1.8-1.3h2l1-2l1,2H-243z M-223,369l-1.6,1.3l0.7,2l-2-0.9     l-2,0.9l0.7-2l-1.8-1.3h2l1-2l1,2H-223z"/>
		</g>
		<path class="st7" d="M-218,426.5c-0.3,0-0.5-0.2-0.5-0.5s0.2-0.5,0.5-0.5c0.8,0,1.5-0.7,1.5-1.5s-0.7-1.5-1.5-1.5    c-0.3,0-0.6,0.1-0.8,0.2c-0.1,0.1-0.3,0.1-0.5,0c-0.2-0.1-0.3-0.2-0.3-0.4c-0.3-1.1-1.3-1.9-2.4-1.9s-2.2,0.8-2.4,1.9    c0,0.2-0.1,0.3-0.3,0.4c-0.2,0.1-0.3,0-0.5,0c-0.2-0.2-0.5-0.2-0.8-0.2c-0.8,0-1.5,0.7-1.5,1.5s0.7,1.5,1.5,1.5    c0.3,0,0.5,0.2,0.5,0.5s-0.2,0.5-0.5,0.5c-1.4,0-2.5-1.1-2.5-2.5s1.1-2.5,2.5-2.5c0.3,0,0.5,0,0.8,0.1c0.5-1.3,1.8-2.1,3.2-2.1    s2.7,0.8,3.2,2.1c0.3-0.1,0.5-0.1,0.8-0.1c1.4,0,2.5,1.1,2.5,2.5S-216.6,426.5-218,426.5z M-260,426.5c-0.3,0-0.5-0.2-0.5-0.5v-2    c0-0.3,0.2-0.5,0.5-0.5h28c0.3,0,0.5,0.2,0.5,0.5s-0.2,0.5-0.5,0.5h-27.5v1.5C-259.5,426.3-259.7,426.5-260,426.5z M-270,426.5    c-0.3,0-0.5-0.2-0.5-0.5v-5.5c-2.2-0.3-4-2.2-4-4.5c0-3.5,0.8-12.5,4.5-12.5s4.5,9,4.5,12.5c0,2.3-1.8,4.2-4,4.5v5.5    C-269.5,426.3-269.7,426.5-270,426.5z M-270,404.5c-2.3,0-3.5,6.8-3.5,11.5c0,1.9,1.6,3.5,3.5,3.5s3.5-1.6,3.5-3.5    C-266.5,411.3-267.7,404.5-270,404.5z M-232,420.5c-0.3,0-0.5-0.2-0.5-0.5v-38c0-0.3,0.2-0.5,0.5-0.5s0.5,0.2,0.5,0.5v38    C-231.5,420.3-231.7,420.5-232,420.5z M-238,420.5c-0.3,0-0.5-0.2-0.5-0.5v-9.5h-6v5h0.5c0.3,0,0.5,0.2,0.5,0.5s-0.2,0.5-0.5,0.5    h-0.5v3.5c0,0.3-0.2,0.5-0.5,0.5s-0.5-0.2-0.5-0.5v-3.5h-0.5c-0.3,0-0.5-0.2-0.5-0.5s0.2-0.5,0.5-0.5h0.5v-5h-6v9.5    c0,0.3-0.2,0.5-0.5,0.5s-0.5-0.2-0.5-0.5v-9.5h-1.5c-0.3,0-0.5-0.2-0.5-0.5s0.2-0.5,0.5-0.5h18c0.3,0,0.5,0.2,0.5,0.5    s-0.2,0.5-0.5,0.5h-1.5v9.5C-237.5,420.3-237.7,420.5-238,420.5z M-258,420.5c-0.3,0-0.5-0.2-0.5-0.5v-38c0-0.3,0.2-0.5,0.5-0.5    s0.5,0.2,0.5,0.5v38C-257.5,420.3-257.7,420.5-258,420.5z M-216,419.5c-0.3,0-0.5-0.2-0.5-0.5v-40.5h-57V400    c0,0.3-0.2,0.5-0.5,0.5s-0.5-0.2-0.5-0.5v-24c0-0.3,0.2-0.5,0.5-0.5s0.5,0.2,0.5,0.5v1.5h57V376c0-0.3,0.2-0.5,0.5-0.5    s0.5,0.2,0.5,0.5v43C-215.5,419.3-215.7,419.5-216,419.5z M-222,416.5h-4c-0.3,0-0.5-0.2-0.5-0.5v-6c0-0.3,0.2-0.5,0.5-0.5h4    c0.3,0,0.5,0.2,0.5,0.5v6C-221.5,416.3-221.7,416.5-222,416.5z M-225.5,415.5h3v-5h-3V415.5z M-222,404.5h-4    c-0.3,0-0.5-0.2-0.5-0.5v-6c0-0.3,0.2-0.5,0.5-0.5h4c0.3,0,0.5,0.2,0.5,0.5v6C-221.5,404.3-221.7,404.5-222,404.5z M-225.5,403.5    h3v-5h-3V403.5z M-238,404.5h-4c-0.3,0-0.5-0.2-0.5-0.5v-6c0-0.3,0.2-0.5,0.5-0.5h4c0.3,0,0.5,0.2,0.5,0.5v6    C-237.5,404.3-237.7,404.5-238,404.5z M-241.5,403.5h3v-5h-3V403.5z M-248,404.5h-4c-0.3,0-0.5-0.2-0.5-0.5v-6    c0-0.3,0.2-0.5,0.5-0.5h4c0.3,0,0.5,0.2,0.5,0.5v6C-247.5,404.3-247.7,404.5-248,404.5z M-251.5,403.5h3v-5h-3V403.5z M-264,404.5    c-0.3,0-0.5-0.2-0.5-0.5v-5.5h-3v1.5c0,0.3-0.2,0.5-0.5,0.5s-0.5-0.2-0.5-0.5v-2c0-0.3,0.2-0.5,0.5-0.5h4c0.3,0,0.5,0.2,0.5,0.5v6    C-263.5,404.3-263.7,404.5-264,404.5z M-222,392.5h-4c-0.3,0-0.5-0.2-0.5-0.5v-6c0-0.3,0.2-0.5,0.5-0.5h4c0.3,0,0.5,0.2,0.5,0.5v6    C-221.5,392.3-221.7,392.5-222,392.5z M-225.5,391.5h3v-5h-3V391.5z M-238,392.5h-4c-0.3,0-0.5-0.2-0.5-0.5v-6    c0-0.3,0.2-0.5,0.5-0.5h4c0.3,0,0.5,0.2,0.5,0.5v6C-237.5,392.3-237.7,392.5-238,392.5z M-241.5,391.5h3v-5h-3V391.5z M-248,392.5    h-4c-0.3,0-0.5-0.2-0.5-0.5v-6c0-0.3,0.2-0.5,0.5-0.5h4c0.3,0,0.5,0.2,0.5,0.5v6C-247.5,392.3-247.7,392.5-248,392.5z     M-251.5,391.5h3v-5h-3V391.5z M-264,392.5h-4c-0.3,0-0.5-0.2-0.5-0.5v-6c0-0.3,0.2-0.5,0.5-0.5h4c0.3,0,0.5,0.2,0.5,0.5v6    C-263.5,392.3-263.7,392.5-264,392.5z M-267.5,391.5h3v-5h-3V391.5z M-223,373.8c-0.1,0-0.1,0-0.2,0l-1.8-0.8l-1.8,0.8    c-0.2,0.1-0.4,0-0.5-0.1c-0.1-0.1-0.2-0.3-0.1-0.5l0.6-1.7l-1.4-1.1c-0.2-0.1-0.2-0.4-0.2-0.6c0.1-0.2,0.3-0.3,0.5-0.3h1.7    l0.9-1.7c0.2-0.3,0.7-0.3,0.9,0l0.9,1.7h1.7c0.2,0,0.4,0.1,0.5,0.3c0.1,0.2,0,0.4-0.2,0.6l-1.4,1.1l0.6,1.6c0.1,0.2,0,0.4-0.1,0.5    C-222.7,373.7-222.9,373.8-223,373.8z M-225,371.9c0.1,0,0.1,0,0.2,0l0.9,0.4l-0.3-0.9c-0.1-0.2,0-0.4,0.2-0.6l0.5-0.4h-0.6    c-0.2,0-0.4-0.1-0.4-0.3l-0.6-1.1l-0.6,1.1c-0.1,0.2-0.3,0.3-0.4,0.3h-0.5l0.5,0.4c0.2,0.1,0.3,0.4,0.2,0.6l-0.3,0.9l0.9-0.4    C-225.1,371.9-225,371.9-225,371.9z M-233,373.8c-0.1,0-0.1,0-0.2,0l-1.8-0.8l-1.8,0.8c-0.2,0.1-0.4,0-0.5-0.1    c-0.1-0.1-0.2-0.3-0.1-0.5l0.6-1.7l-1.4-1.1c-0.2-0.1-0.2-0.4-0.2-0.6c0.1-0.2,0.3-0.3,0.5-0.3h1.7l0.9-1.7c0.2-0.3,0.7-0.3,0.9,0    l0.9,1.7h1.7c0.2,0,0.4,0.1,0.5,0.3c0.1,0.2,0,0.4-0.2,0.6l-1.4,1.1l0.6,1.6c0.1,0.2,0,0.4-0.1,0.5    C-232.7,373.7-232.9,373.8-233,373.8z M-235,371.9c0.1,0,0.1,0,0.2,0l0.9,0.4l-0.3-0.9c-0.1-0.2,0-0.4,0.2-0.6l0.5-0.4h-0.6    c-0.2,0-0.4-0.1-0.4-0.3l-0.6-1.1l-0.6,1.1c-0.1,0.2-0.3,0.3-0.4,0.3h-0.5l0.5,0.4c0.2,0.1,0.3,0.4,0.2,0.6l-0.3,0.9l0.9-0.4    C-235.1,371.9-235,371.9-235,371.9z M-243,373.8c-0.1,0-0.1,0-0.2,0l-1.8-0.8l-1.8,0.8c-0.2,0.1-0.4,0-0.5-0.1    c-0.1-0.1-0.2-0.3-0.1-0.5l0.6-1.7l-1.4-1.1c-0.2-0.1-0.2-0.4-0.2-0.6s0.3-0.3,0.5-0.3h1.7l0.9-1.7c0.2-0.3,0.7-0.3,0.9,0l0.9,1.7    h1.7c0.2,0,0.4,0.1,0.5,0.3c0.1,0.2,0,0.4-0.2,0.6l-1.4,1.1l0.6,1.6c0.1,0.2,0,0.4-0.1,0.5C-242.7,373.7-242.9,373.8-243,373.8z     M-245,371.9c0.1,0,0.1,0,0.2,0l0.9,0.4l-0.3-0.9c-0.1-0.2,0-0.4,0.2-0.6l0.5-0.4h-0.6c-0.2,0-0.4-0.1-0.4-0.3l-0.6-1.1l-0.6,1.1    c-0.1,0.2-0.3,0.3-0.4,0.3h-0.5l0.5,0.4c0.2,0.1,0.3,0.4,0.2,0.6l-0.3,0.9l0.9-0.4C-245.1,371.9-245,371.9-245,371.9z M-256,373.8    c-0.1,0-0.2,0-0.3-0.1c-0.1-0.1-0.2-0.3-0.1-0.5l0.6-1.7l-1.4-1.1c-0.2-0.1-0.2-0.4-0.2-0.6s0.3-0.3,0.5-0.3h1.7l0.9-1.7    c0.2-0.3,0.7-0.3,0.9,0l0.9,1.7h1.7c0.2,0,0.4,0.1,0.5,0.3s0,0.4-0.2,0.6l-1.4,1.1l0.6,1.6c0.1,0.2,0,0.4-0.1,0.5    c-0.1,0.1-0.4,0.2-0.5,0.1l-1.8-0.8l-1.8,0.8C-255.8,373.8-255.9,373.8-256,373.8z M-254,371.9c0.1,0,0.1,0,0.2,0l0.9,0.4    l-0.3-0.9c-0.1-0.2,0-0.4,0.2-0.6l0.5-0.4h-0.6c-0.2,0-0.4-0.1-0.4-0.3l-0.6-1.1l-0.6,1.1c-0.1,0.2-0.3,0.3-0.4,0.3h-0.5l0.5,0.4    c0.2,0.1,0.3,0.4,0.2,0.6l-0.3,0.9l0.9-0.4C-254.1,371.9-254,371.9-254,371.9z M-266,373.8c-0.1,0-0.2,0-0.3-0.1    c-0.1-0.1-0.2-0.3-0.1-0.5l0.6-1.7l-1.4-1.1c-0.2-0.1-0.2-0.4-0.2-0.6s0.3-0.3,0.5-0.3h1.7l0.9-1.7c0.2-0.3,0.7-0.3,0.9,0l0.9,1.7    h1.7c0.2,0,0.4,0.1,0.5,0.3s0,0.4-0.2,0.6l-1.4,1.1l0.6,1.6c0.1,0.2,0,0.4-0.1,0.5c-0.1,0.1-0.4,0.2-0.5,0.1l-1.8-0.8l-1.8,0.8    C-265.8,373.8-265.9,373.8-266,373.8z M-264,371.9c0.1,0,0.1,0,0.2,0l0.9,0.4l-0.3-0.9c-0.1-0.2,0-0.4,0.2-0.6l0.5-0.4h-0.6    c-0.2,0-0.4-0.1-0.4-0.3l-0.6-1.1l-0.6,1.1c-0.1,0.2-0.3,0.3-0.4,0.3h-0.5l0.5,0.4c0.2,0.1,0.3,0.4,0.2,0.6l-0.3,0.9l0.9-0.4    C-264.1,371.9-264,371.9-264,371.9z"/>
	</g>
</g>
</svg>